<?xml version="1.0" encoding="utf-8"?>
<!-- Generator: Adobe Illustrator 16.0.3, SVG Export Plug-In . SVG Version: 6.00 Build 0)  -->
<!DOCTYPE svg PUBLIC "-//W3C//DTD SVG 1.1//EN" "http://www.w3.org/Graphics/SVG/1.1/DTD/svg11.dtd">
<svg version="1.1" id="Ebene" xmlns="http://www.w3.org/2000/svg" xmlns:xlink="http://www.w3.org/1999/xlink" x="0px" y="0px"
	 width="1200px" height="220px" viewBox="0 0 1200 220" enable-background="new 0 0 1200 220" xml:space="preserve">
<g id="Logo_1_">
	<g id="Schrift_2_">
		<path id="x_1_" fill="#29634A" d="M1022.219,57.662h46.649l16.274,28.589l18.979-28.589h43.367l-34.991,48.872l37.502,53.7
			h-45.878l-18.979-33.031l-22.262,33.031h-42.594l37.254-53.7L1022.219,57.662z"/>
		<rect id="i2_1_" x="962.629" y="18.642" fill="#E22427" width="39.311" height="26.754"/>
		<rect id="i1_1_" x="962.629" y="57.662" fill="#29634A" width="39.311" height="102.572"/>
		<path id="g_1_" fill="#29634A" d="M896.667,57.662h36.798v96.875l0.096,4.539c0,6.438-1.368,12.57-4.104,18.399
			c-2.737,5.827-6.375,10.543-10.915,14.15c-4.538,3.604-10.303,6.212-17.288,7.823c-6.986,1.608-14.987,2.414-24.001,2.414
			c-20.606,0-34.756-3.091-42.449-9.273c-7.695-6.181-11.541-14.455-11.541-24.82c0-1.289,0.061-3.028,0.192-5.217l38.149,4.348
			c0.968,3.539,2.449,5.986,4.444,7.34c2.896,1.995,6.535,2.994,10.915,2.994c5.664,0,9.898-1.515,12.7-4.539
			c2.802-3.027,4.201-8.308,4.201-15.84v-15.551c-3.862,4.572-7.727,7.889-11.59,9.947c-6.054,3.222-12.591,4.831-19.606,4.831
			c-13.717,0-24.792-5.99-33.226-17.967c-5.988-8.499-8.982-19.734-8.982-33.707c0-15.968,3.864-28.138,11.59-36.509
			c7.727-8.371,17.836-12.557,30.327-12.557c7.984,0,14.568,1.353,19.752,4.057c5.183,2.705,10.028,7.181,14.537,13.425V57.662z
			 M859.673,107.403c0,7.405,1.579,12.895,4.733,16.467c3.154,3.575,7.308,5.36,12.461,5.36c4.892,0,8.997-1.85,12.313-5.553
			c3.316-3.701,4.974-9.286,4.974-16.757c0-7.469-1.737-13.184-5.214-17.144c-3.478-3.961-7.728-5.94-12.749-5.94
			c-5.023,0-9.032,1.82-12.026,5.457C861.173,92.932,859.673,98.969,859.673,107.403z"/>
		<path id="o_1_" fill="#29634A" d="M684.569,109.238c0-15.646,5.278-28.54,15.839-38.683c10.56-10.141,24.823-15.212,42.787-15.212
			c20.54,0,36.058,5.957,46.555,17.869c8.434,9.595,12.652,21.41,12.652,35.446c0,15.777-5.232,28.703-15.694,38.779
			c-10.464,10.077-24.935,15.115-43.416,15.115c-16.484,0-29.812-4.184-39.986-12.556
			C690.814,139.631,684.569,126.045,684.569,109.238z M723.976,109.142c0,9.144,1.85,15.906,5.554,20.283
			c3.701,4.379,8.354,6.568,13.955,6.568c5.667,0,10.319-2.157,13.956-6.473c3.639-4.312,5.458-11.235,5.458-20.765
			c0-8.886-1.834-15.501-5.506-19.848c-3.669-4.346-8.208-6.52-13.617-6.52c-5.732,0-10.464,2.207-14.199,6.616
			C725.843,93.415,723.976,100.128,723.976,109.142z"/>
		<path id="L_1_" fill="#29634A" d="M556.115,18.642h43.754v106.727h68.283v34.866H556.115V18.642z"/>
		<path id="_x2D__1_" fill="#29634A" d="M476.147,74.183h57.178v30.424h-57.178V74.183z"/>
		<path id="I_1_" fill="#29634A" d="M407.093,18.642h43.85v141.593h-43.85V18.642z"/>
		<path id="B_1_" fill="#29634A" d="M247.635,18.642h81.904c13.65,0,24.13,3.38,31.438,10.142
			c7.307,6.761,10.962,15.132,10.962,25.112c0,8.372-2.608,15.55-7.823,21.539c-3.478,3.993-8.565,7.147-15.26,9.465
			c10.173,2.448,17.658,6.65,22.455,12.604c4.796,5.956,7.196,13.441,7.196,22.456c0,7.34-1.708,13.941-5.119,19.8
			c-3.414,5.86-8.082,10.496-14.005,13.908c-3.67,2.125-9.208,3.671-16.612,4.637c-9.852,1.289-16.389,1.931-19.607,1.931h-75.529
			V18.642z M291.774,74.178h19.027c6.824,0,11.573-1.174,14.247-3.525c2.67-2.35,4.008-5.747,4.008-10.19
			c0-4.12-1.337-7.341-4.008-9.658c-2.673-2.318-7.326-3.478-13.957-3.478h-19.317V74.178z M291.774,129.812h22.311
			c7.534,0,12.846-1.336,15.937-4.009c3.09-2.672,4.636-6.262,4.636-10.769c0-4.186-1.531-7.549-4.588-10.094
			c-3.059-2.542-8.42-3.814-16.082-3.814h-22.214V129.812z"/>
	</g>
	<g id="Balken_2_">
		<rect id="_x35__1_" x="185.638" y="18.642" fill="#E22427" width="20.346" height="141.593"/>
		<rect id="_x34__1_" x="151.729" y="53.797" fill="#E22427" width="20.346" height="106.438"/>
		<rect id="_x33__1_" x="117.819" y="83.656" fill="#E22427" width="20.346" height="76.485"/>
		<rect id="_x32__1_" x="83.91" y="119.543" fill="#E22427" width="20.346" height="39.938"/>
		<rect id="_x31__1_" x="50" y="149.875" fill="#E22427" width="20.346" height="10.359"/>
	</g>
</g>
</svg>
